<svg xmlns="http://www.w3.org/2000/svg" xmlns:xlink="http://www.w3.org/1999/xlink" viewBox="0 0 355 189.11"><defs><style>.cls-1{isolation:isolate;}.cls-2{fill:#fff;}.cls-3{fill:url(#linear-gradient);}.cls-4{opacity:0.3;mix-blend-mode:multiply;}.cls-5{fill:#f7f7f7;}.cls-6{fill:#efefef;}.cls-7{fill:#e6e6e6;}.cls-8{fill:#dedede;}.cls-9{fill:#d6d6d6;}.cls-10{fill:#cecece;}.cls-11{fill:#c5c5c5;}.cls-12{fill:#bdbdbd;}.cls-13{fill:#b5b5b5;}.cls-14{fill:#adadad;}.cls-15{fill:#a5a5a5;}.cls-16{fill:#9c9c9c;}.cls-17{fill:#949494;}.cls-18{fill:#8c8c8c;}.cls-19{fill:#848484;}.cls-20{fill:#7b7b7b;}.cls-21{fill:#737373;}.cls-22{fill:#6b6b6b;}.cls-23{fill:#636363;}.cls-24{fill:#5a5a5a;}.cls-25{fill:#525252;}.cls-26{fill:#4a4a4a;}.cls-27{fill:#424242;}.cls-28{fill:#3a3a3a;}.cls-29{fill:#313131;}.cls-30{fill:#292929;}.cls-31{fill:#212121;}.cls-32{fill:#191919;}.cls-33{fill:#101010;}.cls-34{fill:#080808;}.cls-35{fill:url(#linear-gradient-2);}.cls-36{fill:url(#linear-gradient-3);}.cls-37{fill:#1b5270;}.cls-38{fill:#e0a319;}</style><linearGradient id="linear-gradient" x1="40.06" y1="232" x2="314.94" y2="-42.89" gradientUnits="userSpaceOnUse"><stop offset="0" stop-color="#366994"/><stop offset="1" stop-color="#3b73a2"/></linearGradient><linearGradient id="linear-gradient-2" x1="-3762.17" y1="634.79" x2="-3762.15" y2="634.76" gradientTransform="matrix(1849.27, 0, 0, -1853.39, 6957296.66, 1176561.6)" gradientUnits="userSpaceOnUse"><stop offset="0" stop-color="#387eb8"/><stop offset="1" stop-color="#366994"/></linearGradient><linearGradient id="linear-gradient-3" x1="-3762.5" y1="635.11" x2="-3762.48" y2="635.08" gradientTransform="matrix(1849.27, 0, 0, -1853.39, 6957940, 1177188.78)" gradientUnits="userSpaceOnUse"><stop offset="0" stop-color="#ffe052"/><stop offset="1" stop-color="#ffc331"/></linearGradient></defs><title>L</title><g class="cls-1"><g id="Layer_1" data-name="Layer 1"><circle class="cls-2" cx="86.23" cy="130.33" r="5.08"/><rect class="cls-3" x="-1" y="-1.83" width="357" height="192.77"/><g class="cls-4"><path class="cls-2" d="M60.24,58.59a4.31,4.31,0,0,1-4.31,4.32h0a4.31,4.31,0,0,1-4.31-4.31h0a4.3,4.3,0,0,1,4.3-4.31h0a4.33,4.33,0,0,1,4.32,4.31Zm-4,35.87H80s13.36.22,13.36-12.92V59.83s2-13.14-24.23-13.14c-25.14,0-23.57,10.9-23.57,10.9l0,11.29h24v3.39H36.08S20,70.44,20,95.81s14,24.46,14,24.46h8.38V108.5S42,94.46,56.23,94.46Z"/><path class="cls-2" d="M78.77,133.27A4.31,4.31,0,0,1,83.08,129h0a4.3,4.3,0,0,1,4.31,4.3h0a4.32,4.32,0,0,1-4.31,4.32h0a4.32,4.32,0,0,1-4.32-4.31ZM105,71.6H96.59V83.37s.45,14-13.81,14H59s-13.37-.21-13.37,12.92V132s-2,13.14,24.24,13.14h0c25.14,0,23.57-10.9,23.57-10.9l0-11.29h-24V119.6h33.51S119,121.42,119,96.06,105,71.6,105,71.6Z"/><path class="cls-5" d="M60.41,58.53a4.32,4.32,0,0,1-4.31,4.32h0a4.31,4.31,0,0,1-4.31-4.31h0a4.31,4.31,0,0,1,4.31-4.31h0a4.31,4.31,0,0,1,4.32,4.31Zm-4,35.87H80.19s13.37.22,13.37-12.92V59.77s2-13.15-24.24-13.15c-25.13,0-23.57,10.9-23.57,10.9l0,11.3h24v3.39H36.26S20.17,70.38,20.17,95.74s14,24.47,14,24.47h8.38V108.44S42.14,94.4,56.4,94.4Z"/><path class="cls-5" d="M78.94,133.21a4.33,4.33,0,0,1,4.31-4.32h0a4.31,4.31,0,0,1,4.31,4.31h0a4.3,4.3,0,0,1-4.3,4.31h0a4.33,4.33,0,0,1-4.32-4.31Zm26.2-61.67H96.76V83.31s.46,14-13.81,14H59.16S45.8,97.13,45.8,110.26V132s-2,13.14,24.23,13.14h0c25.14,0,23.57-10.9,23.57-10.9l0-11.29h-24v-3.39H103.1s16.08,1.82,16.08-23.54S105.14,71.54,105.14,71.54Z"/><path class="cls-6" d="M60.58,58.47a4.31,4.31,0,0,1-4.31,4.32h0A4.32,4.32,0,0,1,52,58.48h0a4.31,4.31,0,0,1,4.31-4.31h0a4.3,4.3,0,0,1,4.31,4.31Zm-4,35.87H80.36s13.37.21,13.37-12.92V59.71s2-13.15-24.24-13.15c-25.13,0-23.56,10.9-23.56,10.9l0,11.3h24v3.39H36.43S20.35,70.32,20.35,95.68s14,24.46,14,24.46h8.38V108.38S42.31,94.34,56.58,94.34Z"/><path class="cls-6" d="M79.12,133.15a4.31,4.31,0,0,1,4.3-4.32h0a4.33,4.33,0,0,1,4.32,4.31h0a4.31,4.31,0,0,1-4.31,4.31h0a4.3,4.3,0,0,1-4.31-4.3Zm26.2-61.67H96.94V83.24s.45,14-13.82,14H59.33S46,97.07,46,110.2v21.72s-2,13.14,24.24,13.14h0c25.13,0,23.56-10.9,23.56-10.9l0-11.29h-24v-3.4h33.51s16.08,1.83,16.08-23.53S105.32,71.48,105.32,71.48Z"/><path class="cls-7" d="M60.75,58.41a4.31,4.31,0,0,1-4.3,4.32h0a4.31,4.31,0,0,1-4.31-4.31h0a4.3,4.3,0,0,1,4.3-4.31h0a4.3,4.3,0,0,1,4.31,4.3Zm-4,35.87H80.54s13.36.21,13.36-12.92V59.64s2-13.14-24.23-13.14C44.53,46.5,46.1,57.4,46.1,57.4l0,11.3h24v3.39H36.6S20.52,70.26,20.52,95.62s14,24.46,14,24.46h8.37V108.32S42.48,94.28,56.75,94.28Z"/><path class="cls-7" d="M79.29,133.09a4.33,4.33,0,0,1,4.31-4.32h0a4.31,4.31,0,0,1,4.32,4.31h0a4.31,4.31,0,0,1-4.31,4.31h0a4.3,4.3,0,0,1-4.31-4.3Zm26.2-61.67H97.11V83.18s.45,14-13.81,14H59.51S46.14,97,46.14,110.14v21.71S44.11,145,70.38,145h0c25.13,0,23.56-10.9,23.56-10.9l0-11.3h-24v-3.39h33.51s16.09,1.83,16.09-23.53S105.49,71.42,105.49,71.42Z"/><path class="cls-8" d="M60.93,58.35a4.33,4.33,0,0,1-4.31,4.32h0a4.31,4.31,0,0,1-4.31-4.31h0A4.3,4.3,0,0,1,56.6,54h0a4.3,4.3,0,0,1,4.32,4.3Zm-4,35.87H80.71s13.37.21,13.37-12.92V59.58s2-13.14-24.24-13.14c-25.14,0-23.57,10.9-23.57,10.9l0,11.29h24V72H36.77S20.69,70.2,20.69,95.56s14,24.46,14,24.46h8.38V108.25S42.66,94.22,56.92,94.22Z"/><path class="cls-8" d="M79.46,133a4.32,4.32,0,0,1,4.31-4.32h0A4.31,4.31,0,0,1,88.09,133h0a4.3,4.3,0,0,1-4.3,4.31h0A4.31,4.31,0,0,1,79.46,133Zm26.2-61.68H97.28V83.12s.45,14-13.81,14H59.68s-13.37-.22-13.37,12.92v21.71s-2,13.15,24.24,13.15h0c25.14,0,23.57-10.9,23.57-10.9l0-11.3h-24v-3.39h33.52s16.08,1.83,16.08-23.53S105.66,71.35,105.66,71.35Z"/><path class="cls-9" d="M61.1,58.29a4.31,4.31,0,0,1-4.31,4.31h0a4.3,4.3,0,0,1-4.32-4.3h0A4.33,4.33,0,0,1,56.78,54h0a4.31,4.31,0,0,1,4.31,4.31Zm-4,35.87H80.88s13.37.21,13.37-12.92V59.52s2-13.14-24.24-13.14c-25.13,0-23.56,10.9-23.56,10.9l0,11.29h24V72H37S20.86,70.14,20.86,95.5,34.9,120,34.9,120h8.38V108.19S42.83,94.16,57.09,94.16Z"/><path class="cls-9" d="M79.64,133a4.3,4.3,0,0,1,4.3-4.32h0A4.33,4.33,0,0,1,88.27,133h0A4.31,4.31,0,0,1,84,137.28h0A4.31,4.31,0,0,1,79.64,133Zm26.19-61.68H97.46V83.06s.45,14-13.82,14H59.85S46.49,96.88,46.49,110v21.71s-2,13.14,24.23,13.14h0c25.14,0,23.57-10.9,23.57-10.9l0-11.29h-24v-3.39h33.51s16.08,1.83,16.08-23.54S105.83,71.29,105.83,71.29Z"/><path class="cls-10" d="M61.27,58.23A4.3,4.3,0,0,1,57,62.54h0a4.31,4.31,0,0,1-4.32-4.3h0A4.33,4.33,0,0,1,57,53.91h0a4.31,4.31,0,0,1,4.31,4.31Zm-4,35.86H81.06s13.36.22,13.36-12.91V59.46s2-13.14-24.24-13.14c-25.13,0-23.56,10.9-23.56,10.9l0,11.29h24V71.9H37.12S21,70.08,21,95.44s14,24.46,14,24.46h8.38V108.13S43,94.09,57.27,94.09Z"/><path class="cls-10" d="M79.81,132.9a4.3,4.3,0,0,1,4.3-4.31h0a4.32,4.32,0,0,1,4.32,4.31h0a4.31,4.31,0,0,1-4.31,4.32h0a4.31,4.31,0,0,1-4.31-4.31ZM106,71.23H97.63V83s.45,14-13.82,14H60S46.66,96.82,46.66,110v21.71s-2,13.14,24.24,13.14h0c25.13,0,23.56-10.9,23.56-10.9l0-11.29h-24v-3.39H104S120,121.05,120,95.69,106,71.23,106,71.23Z"/><path class="cls-11" d="M61.45,58.17a4.31,4.31,0,0,1-4.31,4.31h0a4.3,4.3,0,0,1-4.31-4.3h0a4.3,4.3,0,0,1,4.3-4.32h0a4.33,4.33,0,0,1,4.32,4.31ZM57.44,94H81.23s13.36.22,13.36-12.91V59.4s2-13.14-24.23-13.14c-25.14,0-23.57,10.9-23.57,10.9l0,11.29h24v3.39H37.29S21.21,70,21.21,95.38s14,24.46,14,24.46h8.37V108.07S43.17,94,57.44,94Z"/><path class="cls-11" d="M80,132.84a4.31,4.31,0,0,1,4.31-4.31h0a4.3,4.3,0,0,1,4.31,4.31h0a4.32,4.32,0,0,1-4.31,4.32h0A4.31,4.31,0,0,1,80,132.85Zm26.2-61.67H97.8V82.94S98.25,97,84,97H60.2s-13.37-.22-13.37,12.92v21.71s-2,13.14,24.24,13.14h0c25.13,0,23.57-10.9,23.57-10.9l0-11.29h-24v-3.39h33.51s16.09,1.82,16.09-23.54S106.18,71.17,106.18,71.17Z"/><path class="cls-12" d="M61.62,58.11a4.31,4.31,0,0,1-4.31,4.31h0A4.3,4.3,0,0,1,53,58.11h0a4.31,4.31,0,0,1,4.31-4.32h0a4.32,4.32,0,0,1,4.32,4.31ZM57.61,94H81.4s13.37.22,13.37-12.92V59.34s2-13.14-24.24-13.14C45.39,46.2,47,57.1,47,57.1l0,11.29H71v3.39H37.47S21.38,70,21.38,95.32s14,24.46,14,24.46H43.8V108S43.35,94,57.61,94Z"/><path class="cls-12" d="M80.15,132.78a4.31,4.31,0,0,1,4.31-4.31h0a4.3,4.3,0,0,1,4.31,4.3h0a4.3,4.3,0,0,1-4.3,4.32h0a4.33,4.33,0,0,1-4.32-4.31Zm26.2-61.67H98V82.88s.46,14-13.81,14H60.37S47,96.7,47,109.83v21.72s-2,13.14,24.24,13.14h0c25.14,0,23.57-10.9,23.57-10.9l0-11.29h-24v-3.39h33.52s16.08,1.82,16.08-23.54S106.35,71.11,106.35,71.11Z"/><path class="cls-13" d="M61.79,58.05a4.31,4.31,0,0,1-4.31,4.31h0a4.32,4.32,0,0,1-4.32-4.31h0a4.31,4.31,0,0,1,4.31-4.32h0A4.31,4.31,0,0,1,61.79,58Zm-4,35.86H81.57S94.94,94.13,94.94,81V59.28S97,46.14,70.7,46.14C45.57,46.14,47.14,57,47.14,57l0,11.29h24v3.39H37.64S21.55,69.9,21.55,95.26s14,24.46,14,24.46H44V108S43.52,93.91,57.78,93.91Z"/><path class="cls-13" d="M80.33,132.72a4.3,4.3,0,0,1,4.3-4.31h0a4.31,4.31,0,0,1,4.32,4.3h0A4.33,4.33,0,0,1,84.65,137h0a4.31,4.31,0,0,1-4.31-4.31Zm26.19-61.67H98.15V82.82s.45,14-13.82,14H60.54s-13.36-.22-13.36,12.91v21.72s-2,13.14,24.24,13.14h0c25.13,0,23.56-10.9,23.56-10.9l0-11.29H71v-3.39h33.51s16.08,1.82,16.08-23.54S106.52,71.05,106.52,71.05Z"/><path class="cls-14" d="M62,58a4.3,4.3,0,0,1-4.3,4.32h0A4.33,4.33,0,0,1,53.33,58h0a4.31,4.31,0,0,1,4.31-4.31h0A4.31,4.31,0,0,1,62,58ZM58,93.85H81.75s13.36.22,13.36-12.92V59.22s2-13.14-24.24-13.14C45.74,46.08,47.31,57,47.31,57l0,11.29h24v3.39H37.81S21.73,69.83,21.73,95.19s14,24.47,14,24.47h8.37V107.89S43.69,93.85,58,93.85Z"/><path class="cls-14" d="M80.5,132.66a4.3,4.3,0,0,1,4.31-4.31h0a4.3,4.3,0,0,1,4.32,4.3h0A4.33,4.33,0,0,1,84.82,137h0a4.31,4.31,0,0,1-4.31-4.31ZM106.7,71H98.32V82.76s.45,14-13.81,14H60.72s-13.37-.21-13.37,12.92v21.72s-2,13.14,24.24,13.14h0c25.13,0,23.56-10.9,23.56-10.9l0-11.29h-24V119h33.51s16.09,1.82,16.09-23.54S106.7,71,106.7,71Z"/><path class="cls-15" d="M62.14,57.92a4.32,4.32,0,0,1-4.31,4.32h0a4.31,4.31,0,0,1-4.31-4.31h0a4.3,4.3,0,0,1,4.3-4.31h0a4.32,4.32,0,0,1,4.32,4.31Zm-4,35.87H81.92S95.28,94,95.28,80.87V59.16S97.31,46,71.05,46c-25.14,0-23.57,10.9-23.57,10.9l0,11.3h24V71.6H38S21.9,69.77,21.9,95.13s14,24.47,14,24.47h8.38V107.83S43.86,93.79,58.13,93.79Z"/><path class="cls-15" d="M80.67,132.6A4.33,4.33,0,0,1,85,128.28h0a4.31,4.31,0,0,1,4.31,4.31h0A4.31,4.31,0,0,1,85,136.91h0a4.3,4.3,0,0,1-4.32-4.3Zm26.2-61.67H98.49V82.7s.45,14-13.81,14H60.89s-13.37-.21-13.37,12.92v21.72s-2,13.14,24.24,13.14h0c25.14,0,23.57-10.9,23.57-10.9l0-11.29h-24v-3.39h33.51s16.09,1.82,16.09-23.54S106.87,70.93,106.87,70.93Z"/><path class="cls-16" d="M62.31,57.86A4.32,4.32,0,0,1,58,62.18h0a4.31,4.31,0,0,1-4.31-4.31h0A4.31,4.31,0,0,1,58,53.55h0a4.3,4.3,0,0,1,4.32,4.3Zm-4,35.87H82.09s13.37.21,13.37-12.92V59.1S97.49,46,71.22,46c-25.13,0-23.57,10.9-23.57,10.9l0,11.3h24v3.39H38.16S22.07,69.71,22.07,95.07s14,24.46,14,24.46h8.38V107.77S44,93.73,58.3,93.73Z"/><path class="cls-16" d="M80.84,132.54a4.33,4.33,0,0,1,4.31-4.32h0a4.31,4.31,0,0,1,4.31,4.31h0a4.3,4.3,0,0,1-4.3,4.31h0a4.31,4.31,0,0,1-4.32-4.3ZM107,70.87H98.66V82.63s.46,14-13.81,14H61.06S47.7,96.46,47.7,109.59v21.72s-2,13.14,24.23,13.14h0c25.14,0,23.57-10.9,23.57-10.9l0-11.3h-24v-3.39H105s16.08,1.83,16.08-23.53S107,70.87,107,70.87Z"/><path class="cls-17" d="M62.48,57.8a4.32,4.32,0,0,1-4.31,4.32h0a4.32,4.32,0,0,1-4.32-4.31h0a4.31,4.31,0,0,1,4.31-4.31h0a4.3,4.3,0,0,1,4.31,4.3Zm-4,35.87H82.26s13.37.21,13.37-12.92V59s2-13.14-24.24-13.14c-25.13,0-23.56,10.9-23.56,10.9l0,11.29h24v3.4H38.33S22.25,69.65,22.25,95s14,24.46,14,24.46h8.38V107.7S44.21,93.67,58.48,93.67Z"/><path class="cls-17" d="M81,132.48a4.3,4.3,0,0,1,4.3-4.32h0a4.33,4.33,0,0,1,4.32,4.31h0a4.31,4.31,0,0,1-4.31,4.31h0a4.3,4.3,0,0,1-4.31-4.3Zm26.2-61.68H98.84V82.57s.45,14-13.82,14H61.23s-13.36-.21-13.36,12.92v21.71s-2,13.15,24.24,13.15h0c25.13,0,23.56-10.9,23.56-10.9l0-11.3h-24V118.8h33.51s16.08,1.83,16.08-23.53S107.22,70.8,107.22,70.8Z"/><path class="cls-18" d="M62.65,57.74a4.31,4.31,0,0,1-4.3,4.32h0A4.33,4.33,0,0,1,54,57.75h0a4.31,4.31,0,0,1,4.31-4.31h0a4.3,4.3,0,0,1,4.31,4.3Zm-4,35.87H82.44s13.36.21,13.36-12.92V59s2-13.14-24.23-13.14C46.43,45.83,48,56.73,48,56.73L48,68H72v3.39H38.5S22.42,69.59,22.42,95s14,24.46,14,24.46h8.37V107.64S44.38,93.61,58.65,93.61Z"/><path class="cls-18" d="M81.19,132.42a4.32,4.32,0,0,1,4.31-4.32h0a4.31,4.31,0,0,1,4.32,4.31h0a4.31,4.31,0,0,1-4.31,4.31h0a4.3,4.3,0,0,1-4.31-4.31Zm26.2-61.68H99V82.51s.45,14-13.81,14H61.41S48,96.33,48,109.47v21.71s-2,13.14,24.24,13.14h0c25.13,0,23.56-10.9,23.56-10.9l0-11.29h-24v-3.39h33.51s16.09,1.83,16.09-23.53S107.39,70.74,107.39,70.74Z"/><path class="cls-19" d="M62.83,57.68A4.31,4.31,0,0,1,58.52,62h0a4.3,4.3,0,0,1-4.31-4.3h0a4.32,4.32,0,0,1,4.3-4.32h0a4.32,4.32,0,0,1,4.32,4.31Zm-4,35.86H82.61S96,93.76,96,80.63V58.91s2-13.14-24.24-13.14c-25.14,0-23.57,10.9-23.57,10.9L48.2,68h24v3.39H38.67S22.59,69.53,22.59,94.89s14,24.46,14,24.46H45V107.58S44.55,93.54,58.82,93.54Z"/><path class="cls-19" d="M81.36,132.36A4.31,4.31,0,0,1,85.67,128h0A4.31,4.31,0,0,1,90,132.35h0a4.3,4.3,0,0,1-4.31,4.31h0a4.32,4.32,0,0,1-4.32-4.31Zm26.2-61.68H99.18V82.45s.45,14-13.81,14H61.58s-13.37-.22-13.37,12.92v21.71s-2,13.14,24.24,13.14h0c25.14,0,23.57-10.9,23.57-10.9l0-11.29H72v-3.39h33.52s16.08,1.83,16.08-23.54S107.56,70.68,107.56,70.68Z"/><path class="cls-20" d="M63,57.62a4.31,4.31,0,0,1-4.31,4.31h0a4.3,4.3,0,0,1-4.32-4.3h0a4.33,4.33,0,0,1,4.31-4.32h0A4.31,4.31,0,0,1,63,57.61ZM59,93.48H82.78s13.37.22,13.37-12.91V58.85s2-13.14-24.24-13.14c-25.13,0-23.56,10.9-23.56,10.9l0,11.29h24v3.39H38.85S22.76,69.47,22.76,94.83s14,24.46,14,24.46h8.38V107.52S44.73,93.48,59,93.48Z"/><path class="cls-20" d="M81.53,132.29A4.31,4.31,0,0,1,85.84,128h0a4.31,4.31,0,0,1,4.31,4.31h0a4.3,4.3,0,0,1-4.3,4.32h0a4.33,4.33,0,0,1-4.32-4.31Zm26.2-61.67H99.36V82.39s.45,14-13.82,14H61.75s-13.36-.22-13.36,12.92v21.71s-2,13.14,24.23,13.14h0c25.14,0,23.57-10.9,23.57-10.9l0-11.29h-24v-3.39h33.51s16.08,1.82,16.08-23.54S107.73,70.62,107.73,70.62Z"/><path class="cls-21" d="M63.17,57.56a4.3,4.3,0,0,1-4.3,4.31h0a4.31,4.31,0,0,1-4.32-4.31h0a4.32,4.32,0,0,1,4.31-4.32h0a4.31,4.31,0,0,1,4.31,4.31Zm-4,35.86H83s13.36.22,13.36-12.91V58.79s2-13.14-24.24-13.14c-25.13,0-23.56,10.9-23.56,10.9l0,11.29h24v3.39H39S22.94,69.41,22.94,94.77s14,24.46,14,24.46h8.38V107.46S44.9,93.42,59.17,93.42Z"/><path class="cls-21" d="M81.71,132.23a4.3,4.3,0,0,1,4.3-4.31h0a4.31,4.31,0,0,1,4.32,4.31h0A4.32,4.32,0,0,1,86,136.55h0a4.31,4.31,0,0,1-4.31-4.31Zm26.2-61.67H99.53V82.33s.45,14-13.82,14H61.92s-13.36-.22-13.36,12.91V131s-2,13.14,24.24,13.14h0c25.13,0,23.56-10.9,23.56-10.9l0-11.29h-24v-3.39h33.51s16.08,1.82,16.08-23.54S107.91,70.56,107.91,70.56Z"/><path class="cls-22" d="M63.35,57.5A4.31,4.31,0,0,1,59,61.81h0a4.31,4.31,0,0,1-4.31-4.31h0A4.3,4.3,0,0,1,59,53.18h0a4.33,4.33,0,0,1,4.32,4.31Zm-4,35.86H83.13s13.36.22,13.36-12.92V58.73s2-13.14-24.23-13.14c-25.14,0-23.57,10.9-23.57,10.9l0,11.29h24v3.39H39.19S23.11,69.35,23.11,94.71s14,24.46,14,24.46h8.37V107.4S45.07,93.36,59.34,93.36Z"/><path class="cls-22" d="M81.88,132.17a4.31,4.31,0,0,1,4.31-4.31h0a4.3,4.3,0,0,1,4.31,4.3h0a4.33,4.33,0,0,1-4.31,4.32h0a4.31,4.31,0,0,1-4.32-4.31Zm26.2-61.67H99.7V82.27s.45,14-13.81,14H62.1s-13.37-.22-13.37,12.91v21.72s-2,13.14,24.24,13.14h0c25.13,0,23.56-10.9,23.56-10.9l0-11.29h-24V118.5H106s16.09,1.82,16.09-23.54S108.08,70.5,108.08,70.5Z"/><path class="cls-23" d="M63.52,57.44a4.31,4.31,0,0,1-4.31,4.31h0a4.31,4.31,0,0,1-4.31-4.31h0a4.31,4.31,0,0,1,4.31-4.32h0a4.32,4.32,0,0,1,4.32,4.31Zm-4,35.86H83.3s13.37.22,13.37-12.92V58.67s2-13.14-24.24-13.14c-25.14,0-23.57,10.9-23.57,10.9l0,11.29h24v3.39H39.36S23.28,69.28,23.28,94.65s14,24.46,14,24.46H45.7V107.34S45.25,93.3,59.51,93.3Z"/><path class="cls-23" d="M82.05,132.11a4.31,4.31,0,0,1,4.31-4.31h0a4.3,4.3,0,0,1,4.31,4.3h0a4.31,4.31,0,0,1-4.3,4.32h0a4.33,4.33,0,0,1-4.32-4.31Zm26.2-61.67H99.87V82.21s.46,14-13.81,14H62.27S48.9,96,48.9,109.16v21.72S46.88,144,73.14,144h0c25.14,0,23.57-10.9,23.57-10.9l0-11.29h-24v-3.39h33.52s16.08,1.82,16.08-23.54S108.25,70.44,108.25,70.44Z"/><path class="cls-24" d="M63.69,57.37a4.31,4.31,0,0,1-4.31,4.32h0a4.31,4.31,0,0,1-4.32-4.31h0a4.31,4.31,0,0,1,4.31-4.31h0a4.31,4.31,0,0,1,4.31,4.31Zm-4,35.87H83.47s13.37.22,13.37-12.92V58.61s2-13.14-24.24-13.14C47.47,45.47,49,56.36,49,56.36l0,11.3h24v3.39H39.54S23.45,69.22,23.45,94.58s14,24.47,14,24.47h8.38V107.28S45.42,93.24,59.68,93.24Z"/><path class="cls-24" d="M82.23,132.05a4.31,4.31,0,0,1,4.3-4.32h0A4.33,4.33,0,0,1,90.86,132h0a4.31,4.31,0,0,1-4.31,4.31h0a4.31,4.31,0,0,1-4.31-4.31Zm26.19-61.67h-8.37V82.15s.45,14-13.82,14H62.44S49.08,96,49.08,109.1v21.72S47.05,144,73.31,144h0c25.13,0,23.56-10.9,23.56-10.9l0-11.29h-24v-3.39h33.51s16.08,1.82,16.08-23.54S108.42,70.38,108.42,70.38Z"/><path class="cls-25" d="M63.86,57.31a4.3,4.3,0,0,1-4.3,4.32h0a4.33,4.33,0,0,1-4.32-4.31h0A4.31,4.31,0,0,1,59.54,53h0a4.3,4.3,0,0,1,4.31,4.31Zm-4,35.87H83.65S97,93.39,97,80.26V58.55S99,45.4,72.77,45.4c-25.13,0-23.56,10.9-23.56,10.9l0,11.3h24V71H39.71S23.63,69.16,23.63,94.52s14,24.47,14,24.47H46V107.22S45.59,93.18,59.86,93.18Z"/><path class="cls-25" d="M82.4,132a4.32,4.32,0,0,1,4.31-4.32h0A4.32,4.32,0,0,1,91,132h0a4.31,4.31,0,0,1-4.31,4.31h0A4.3,4.3,0,0,1,82.4,132Zm26.2-61.67h-8.38V82.08s.45,14-13.82,14H62.62S49.25,95.91,49.25,109v21.72s-2,13.14,24.24,13.14h0c25.13,0,23.56-10.9,23.56-10.9l0-11.29H73v-3.39h33.51s16.08,1.82,16.08-23.54S108.6,70.32,108.6,70.32Z"/><path class="cls-26" d="M64,57.25a4.33,4.33,0,0,1-4.31,4.32h0a4.31,4.31,0,0,1-4.31-4.31h0a4.3,4.3,0,0,1,4.3-4.31h0A4.31,4.31,0,0,1,64,57.24ZM60,93.12H83.82s13.36.21,13.36-12.92V58.48s2-13.14-24.23-13.14c-25.14,0-23.57,10.9-23.57,10.9l0,11.3h24v3.39H39.88S23.8,69.1,23.8,94.46s14,24.46,14,24.46h8.38V107.16S45.76,93.12,60,93.12Z"/><path class="cls-26" d="M82.57,131.93a4.33,4.33,0,0,1,4.31-4.32h0a4.31,4.31,0,0,1,4.31,4.31h0a4.31,4.31,0,0,1-4.31,4.31h0a4.3,4.3,0,0,1-4.32-4.3Zm26.2-61.67h-8.38V82s.45,14-13.81,14H62.79S49.42,95.85,49.42,109v21.71s-2,13.15,24.24,13.15h0c25.13,0,23.57-10.9,23.57-10.9l0-11.3h-24v-3.39h33.51s16.09,1.83,16.09-23.53S108.77,70.26,108.77,70.26Z"/><path class="cls-27" d="M64.21,57.19a4.33,4.33,0,0,1-4.31,4.32h0a4.31,4.31,0,0,1-4.31-4.31h0a4.31,4.31,0,0,1,4.31-4.31h0a4.3,4.3,0,0,1,4.32,4.3Zm-4,35.87H84s13.37.21,13.37-12.92V58.42s2-13.14-24.24-13.14c-25.14,0-23.57,10.9-23.57,10.9l0,11.29h24v3.39H40.06S24,69,24,94.4s14,24.46,14,24.46h8.38V107.09S45.94,93.06,60.2,93.06Z"/><path class="cls-27" d="M82.74,131.87a4.32,4.32,0,0,1,4.31-4.32h0a4.31,4.31,0,0,1,4.31,4.31h0a4.3,4.3,0,0,1-4.3,4.31h0a4.32,4.32,0,0,1-4.32-4.31Zm26.2-61.68h-8.38V82S101,96,86.75,96H63S49.6,95.78,49.6,108.92v21.71s-2,13.15,24.23,13.15h0c25.14,0,23.57-10.9,23.57-10.9l0-11.3h-24v-3.39H106.9S123,120,123,94.66,108.94,70.19,108.94,70.19Z"/><path class="cls-28" d="M64.38,57.13a4.3,4.3,0,0,1-4.31,4.31h0a4.3,4.3,0,0,1-4.32-4.3h0a4.33,4.33,0,0,1,4.31-4.32h0a4.31,4.31,0,0,1,4.31,4.31ZM60.37,93H84.16s13.37.21,13.37-12.92V58.36s2-13.14-24.24-13.14c-25.13,0-23.56,10.9-23.56,10.9l0,11.29h24V70.8H40.23S24.14,69,24.14,94.34s14,24.46,14,24.46h8.38V107S46.11,93,60.37,93Z"/><path class="cls-28" d="M82.92,131.81a4.3,4.3,0,0,1,4.3-4.32h0a4.33,4.33,0,0,1,4.32,4.31h0a4.31,4.31,0,0,1-4.31,4.31h0a4.31,4.31,0,0,1-4.31-4.31Zm26.19-61.68h-8.37V81.9s.45,14-13.82,14H63.13s-13.36-.22-13.36,12.92v21.71s-2,13.14,24.24,13.14h0c25.13,0,23.56-10.9,23.56-10.9l0-11.29h-24v-3.39h33.51s16.08,1.83,16.08-23.54S109.11,70.13,109.11,70.13Z"/><path class="cls-29" d="M64.55,57.07a4.3,4.3,0,0,1-4.3,4.31h0a4.31,4.31,0,0,1-4.32-4.3h0a4.33,4.33,0,0,1,4.31-4.32h0a4.31,4.31,0,0,1,4.31,4.31Zm-4,35.86H84.34S97.7,93.15,97.7,80V58.3s2-13.14-24.24-13.14c-25.13,0-23.56,10.9-23.56,10.9l0,11.29h24v3.39H40.4S24.32,68.92,24.32,94.28s14,24.46,14,24.46h8.37V107S46.28,92.93,60.55,92.93Z"/><path class="cls-29" d="M83.09,131.75a4.31,4.31,0,0,1,4.31-4.32h0a4.31,4.31,0,0,1,4.32,4.31h0a4.31,4.31,0,0,1-4.31,4.32h0a4.31,4.31,0,0,1-4.31-4.31Zm26.2-61.68h-8.38V81.84s.45,14-13.81,14H63.31s-13.37-.22-13.37,12.92v21.71s-2,13.14,24.24,13.14h0c25.13,0,23.56-10.9,23.56-10.9l0-11.29h-24v-3.39h33.51s16.09,1.82,16.09-23.54S109.29,70.07,109.29,70.07Z"/><path class="cls-30" d="M64.73,57a4.31,4.31,0,0,1-4.31,4.31h0A4.3,4.3,0,0,1,56.1,57h0a4.31,4.31,0,0,1,4.3-4.32h0A4.33,4.33,0,0,1,64.73,57Zm-4,35.86H84.51S97.87,93.09,97.87,80V58.24s2-13.14-24.23-13.14C48.5,45.1,50.07,56,50.07,56l0,11.29h24v3.39H40.57S24.49,68.86,24.49,94.22s14,24.46,14,24.46h8.38V106.91S46.45,92.87,60.72,92.87Z"/><path class="cls-30" d="M83.26,131.68a4.31,4.31,0,0,1,4.31-4.31h0a4.3,4.3,0,0,1,4.31,4.31h0A4.31,4.31,0,0,1,87.58,136h0a4.32,4.32,0,0,1-4.32-4.31ZM109.46,70h-8.38V81.78s.45,14-13.81,14H63.48s-13.37-.22-13.37,12.92v21.71s-2,13.14,24.24,13.14h0c25.14,0,23.57-10.9,23.57-10.9l0-11.29h-24V118h33.51s16.09,1.82,16.09-23.54S109.46,70,109.46,70Z"/><path class="cls-31" d="M64.9,57a4.31,4.31,0,0,1-4.31,4.31h0A4.3,4.3,0,0,1,56.27,57h0a4.32,4.32,0,0,1,4.31-4.32h0a4.31,4.31,0,0,1,4.32,4.31Zm-4,35.86H84.68S98.05,93,98.05,79.89V58.18S100.08,45,73.81,45c-25.13,0-23.56,10.9-23.56,10.9l0,11.29h24v3.39H40.75S24.66,68.8,24.66,94.16s14,24.46,14,24.46h8.38V106.85S46.63,92.81,60.89,92.81Z"/><path class="cls-31" d="M83.43,131.62a4.31,4.31,0,0,1,4.31-4.31h0a4.3,4.3,0,0,1,4.31,4.3h0a4.3,4.3,0,0,1-4.3,4.32h0a4.33,4.33,0,0,1-4.32-4.31ZM109.63,70h-8.38V81.72s.46,14-13.81,14H63.65s-13.36-.22-13.36,12.91v21.72s-2,13.14,24.23,13.14h0c25.14,0,23.57-10.9,23.57-10.9l0-11.29h-24V118h33.51s16.08,1.82,16.08-23.54S109.63,70,109.63,70Z"/><path class="cls-32" d="M65.07,56.89a4.3,4.3,0,0,1-4.3,4.31h0a4.32,4.32,0,0,1-4.32-4.31h0a4.31,4.31,0,0,1,4.31-4.32h0a4.31,4.31,0,0,1,4.31,4.31Zm-4,35.86H84.85S98.22,93,98.22,79.83V58.12S100.25,45,74,45c-25.13,0-23.56,10.9-23.56,10.9l0,11.29h24v3.39H40.92S24.84,68.74,24.84,94.1s14,24.46,14,24.46h8.38V106.79S46.8,92.75,61.07,92.75Z"/><path class="cls-32" d="M83.61,131.56a4.3,4.3,0,0,1,4.3-4.31h0a4.3,4.3,0,0,1,4.32,4.3h0a4.33,4.33,0,0,1-4.31,4.32h0a4.31,4.31,0,0,1-4.31-4.31Zm26.2-61.67h-8.38V81.66s.45,14-13.82,14H63.82s-13.36-.22-13.36,12.91v21.72s-2,13.14,24.24,13.14h0c25.13,0,23.56-10.9,23.56-10.9l0-11.29h-24v-3.39h33.51s16.08,1.82,16.08-23.54S109.81,69.89,109.81,69.89Z"/><path class="cls-33" d="M65.25,56.82a4.31,4.31,0,0,1-4.31,4.32h0a4.31,4.31,0,0,1-4.31-4.31h0a4.3,4.3,0,0,1,4.3-4.31h0a4.33,4.33,0,0,1,4.32,4.31Zm-4,35.87H85s13.36.22,13.36-12.92V58.06s2-13.14-24.23-13.14c-25.14,0-23.57,10.9-23.57,10.9l0,11.29h24V70.5H41.09S25,68.67,25,94s14,24.47,14,24.47h8.37V106.73S47,92.69,61.24,92.69Z"/><path class="cls-33" d="M83.78,131.5a4.31,4.31,0,0,1,4.31-4.31h0a4.3,4.3,0,0,1,4.32,4.3h0a4.33,4.33,0,0,1-4.31,4.32h0a4.31,4.31,0,0,1-4.31-4.31ZM110,69.83H101.6V81.6s.45,14-13.81,14H64s-13.37-.21-13.37,12.92v21.72s-2,13.14,24.24,13.14h0c25.13,0,23.56-10.9,23.56-10.9l0-11.29h-24v-3.39h33.51S124,119.65,124,94.29,110,69.83,110,69.83Z"/><path class="cls-34" d="M65.42,56.76a4.32,4.32,0,0,1-4.31,4.32h0a4.31,4.31,0,0,1-4.31-4.31h0a4.3,4.3,0,0,1,4.31-4.31h0a4.31,4.31,0,0,1,4.32,4.31Zm-4,35.87H85.2s13.37.21,13.37-12.92V58s2-13.15-24.24-13.15c-25.14,0-23.57,10.9-23.57,10.9l0,11.3h24v3.39H41.26S25.18,68.61,25.18,94s14,24.47,14,24.47H47.6V106.67S47.15,92.63,61.41,92.63Z"/><path class="cls-34" d="M84,131.44a4.33,4.33,0,0,1,4.31-4.32h0a4.31,4.31,0,0,1,4.31,4.31h0a4.3,4.3,0,0,1-4.3,4.31h0a4.3,4.3,0,0,1-4.32-4.3Zm26.2-61.67h-8.38V81.54s.45,14-13.81,14H64.17S50.8,95.36,50.8,108.49v21.72s-2,13.14,24.24,13.14h0c25.14,0,23.57-10.9,23.57-10.9l0-11.29h-24v-3.39h33.52s16.08,1.82,16.08-23.54S110.15,69.77,110.15,69.77Z"/><path d="M65.59,56.7A4.32,4.32,0,0,1,61.28,61h0A4.31,4.31,0,0,1,57,56.71h0a4.31,4.31,0,0,1,4.31-4.31h0a4.3,4.3,0,0,1,4.31,4.3Zm-4,35.87H85.37s13.37.21,13.37-12.92V57.94s2-13.15-24.24-13.15c-25.13,0-23.56,10.9-23.56,10.9L51,67H75v3.39H41.44S25.35,68.55,25.35,93.91s14,24.46,14,24.46h8.38V106.61S47.32,92.57,61.58,92.57Z"/><path d="M84.13,131.38a4.31,4.31,0,0,1,4.3-4.32h0a4.33,4.33,0,0,1,4.32,4.31h0a4.31,4.31,0,0,1-4.31,4.31h0a4.3,4.3,0,0,1-4.31-4.3Zm26.19-61.67H102V81.47s.45,14-13.82,14H64.34S51,95.3,51,108.43v21.72s-2,13.14,24.23,13.14h0c25.14,0,23.57-10.9,23.57-10.9l0-11.3h-24V117.7h33.51s16.08,1.83,16.08-23.53S110.32,69.71,110.32,69.71Z"/></g><path class="cls-35" d="M74.84,44.93c-25.13,0-23.56,10.9-23.56,10.9l0,11.29h24v3.39H41.78S25.7,68.69,25.7,94.05s14,24.46,14,24.46h8.38V106.74s-.45-14,13.82-14H85.72s13.36.22,13.36-12.91V58.07S101.11,44.93,74.84,44.93ZM61.62,52.52a4.31,4.31,0,0,1,4.31,4.31h0a4.3,4.3,0,0,1-4.3,4.31h0a4.32,4.32,0,0,1-4.32-4.3h0a4.32,4.32,0,0,1,4.31-4.32Z"/><path class="cls-2" d="M39.52,119a11.62,11.62,0,0,1-7.69-3.35c-4.4-4.13-6.63-11.4-6.63-21.62,0-9.62,2.27-16.52,6.75-20.52A13.59,13.59,0,0,1,41.81,70h33V67.62h-24l0-11.76a7.15,7.15,0,0,1,2-5.27c2.44-2.81,8.25-6.16,22.09-6.16,11,0,18.5,2.25,22.3,6.68a9.36,9.36,0,0,1,2.44,7V79.79c0,4-1.19,7.16-3.54,9.47C92,93.26,86,93.21,85.71,93.2H61.93c-4.1,0-7.34,1.2-9.62,3.55-3.83,4-3.7,9.92-3.7,10V119H39.52Zm1.6-48a13,13,0,0,0-8.52,3.3c-4.25,3.81-6.4,10.45-6.4,19.76,0,9.91,2.11,16.93,6.29,20.87A10.6,10.6,0,0,0,39.7,118h7.91V106.74c0-.24-.16-6.42,4-10.68,2.48-2.56,6-3.86,10.35-3.86H85.72c.06,0,5.86,0,9.62-3.66,2.15-2.12,3.24-5.06,3.24-8.75V58a8.51,8.51,0,0,0-2.23-6.25c-2.48-2.88-8.23-6.31-21.52-6.31s-19,3.14-21.3,5.78a6.13,6.13,0,0,0-1.76,4.55v.07l0,10.79h24V71H41.72S41.49,71,41.12,71Zm20.5-9.34a4.82,4.82,0,1,1,0-9.63v0h0a4.82,4.82,0,0,1,0,9.63Zm0-8.63a3.82,3.82,0,0,0-3.81,3.82,3.84,3.84,0,0,0,1.12,2.7,3.79,3.79,0,0,0,2.7,1.11h0a3.82,3.82,0,0,0,0-7.63h0Z"/><path class="cls-36" d="M75.38,143.33c25.13,0,23.56-10.9,23.56-10.9l0-11.29h-24v-3.39h33.51s16.09,1.82,16.09-23.54-14-24.46-14-24.46h-8.38V81.52s.45,14-13.81,14H64.51s-13.37-.22-13.37,12.92v21.71s-2,13.14,24.24,13.14Zm13.22-7.59a4.31,4.31,0,0,1-4.31-4.31h0a4.31,4.31,0,0,1,4.31-4.31h0a4.31,4.31,0,0,1,4.32,4.31h0a4.32,4.32,0,0,1-4.31,4.32Z"/><path class="cls-2" d="M75.38,143.83c-11,0-18.5-2.25-22.3-6.68a9.41,9.41,0,0,1-2.44-7V108.48c0-4,1.19-7.17,3.55-9.48,4.06-4,10.06-3.94,10.33-3.94H88.3c4.1,0,7.33-1.2,9.62-3.55,3.83-4,3.69-9.91,3.69-10V69.25h8.88a11.39,11.39,0,0,1,7.91,3.34C122.8,76.72,125,84,125,94.21c0,9.62-2.27,16.52-6.75,20.52a13.61,13.61,0,0,1-9.86,3.52h-33v2.39h24l0,11.76a7.23,7.23,0,0,1-2,5.27C95,140.48,89.23,143.83,75.38,143.83ZM64.49,96.06c-.39,0-6,.07-9.61,3.66-2.15,2.12-3.24,5.06-3.24,8.76v21.79a8.43,8.43,0,0,0,2.22,6.25c2.49,2.88,8.24,6.31,21.52,6.31h0c13.47,0,19-3.16,21.33-5.81a6.17,6.17,0,0,0,1.74-4.52v-.07l0-10.79h-24v-4.39H108.5a12.77,12.77,0,0,0,9.12-3.28c4.25-3.81,6.41-10.45,6.41-19.76,0-9.91-2.12-16.93-6.3-20.87a10.6,10.6,0,0,0-7.21-3.09h-7.91V81.52c0,.24.16,6.42-4,10.68-2.48,2.56-6,3.86-10.34,3.86H64.49ZM88.6,136.24a4.82,4.82,0,0,1,0-9.63h0a4.82,4.82,0,1,1,0,9.63h0Zm0-8.63h0a3.82,3.82,0,0,0,0,7.63h0a3.82,3.82,0,0,0,0-7.63Z"/><path class="cls-37" d="M67.41,76.89a.57.57,0,0,1-.5.62H38.09a.56.56,0,0,1-.49-.62h0a.56.56,0,0,1,.49-.62H66.91a.57.57,0,0,1,.5.62Z"/><path class="cls-37" d="M55.3,82.07a.56.56,0,0,1-.49.61H38.09a.55.55,0,0,1-.49-.61h0a.56.56,0,0,1,.49-.62H54.81a.57.57,0,0,1,.49.62Z"/><path class="cls-37" d="M75.14,82.07a.56.56,0,0,1-.49.61H57.92a.56.56,0,0,1-.49-.61h0a.57.57,0,0,1,.49-.62H74.65a.57.57,0,0,1,.49.62Z"/><path class="cls-37" d="M90.28,87.24a.57.57,0,0,1-.49.62H38.09a.57.57,0,0,1-.49-.62h0a.57.57,0,0,1,.49-.62h51.7a.57.57,0,0,1,.49.62Z"/><path class="cls-38" d="M84.6,100.67a.57.57,0,0,0,.5.62h28.82a.56.56,0,0,0,.5-.62h0a.56.56,0,0,0-.5-.61H85.1a.57.57,0,0,0-.5.61Z"/><path class="cls-38" d="M96.71,105.85a.56.56,0,0,0,.49.61h16.72a.56.56,0,0,0,.5-.61h0a.57.57,0,0,0-.5-.62H97.2a.57.57,0,0,0-.49.62Z"/><path class="cls-38" d="M76.88,105.85a.56.56,0,0,0,.49.61H94.09a.57.57,0,0,0,.5-.61h0a.58.58,0,0,0-.5-.62H77.37a.57.57,0,0,0-.49.62Z"/><path class="cls-38" d="M61.73,111a.56.56,0,0,0,.49.62h51.7a.57.57,0,0,0,.5-.62h0a.57.57,0,0,0-.5-.61H62.22a.56.56,0,0,0-.49.61Z"/><path class="cls-2" d="M146.8,114.09a10.59,10.59,0,0,1,3.29.45,6.26,6.26,0,0,1,2.27,1.25,4.89,4.89,0,0,1,1.31,1.88,6.24,6.24,0,0,1,.43,2.34,7,7,0,0,1-.44,2.5,5,5,0,0,1-1.33,1.94,6.29,6.29,0,0,1-2.27,1.26,10.55,10.55,0,0,1-3.26.46h-2.19v6.06H140.4V114.09Zm0,8.9a3.12,3.12,0,0,0,2.37-.78,3.63,3.63,0,0,0,.53-3.33,2.23,2.23,0,0,0-.57-.88,2.51,2.51,0,0,0-1-.56,4,4,0,0,0-1.37-.2h-2.19V123Z"/><path class="cls-2" d="M164.38,125.33v6.9h-4.21v-6.9l-6.57-11.24h3.71a1.33,1.33,0,0,1,.86.25,1.93,1.93,0,0,1,.53.66l2.57,5.28c.22.41.41.8.59,1.16s.32.72.46,1.07c.12-.36.27-.72.43-1.08s.35-.75.56-1.15l2.54-5.28a2.1,2.1,0,0,1,.22-.33,1.59,1.59,0,0,1,.29-.29,1.36,1.36,0,0,1,.86-.29H171Z"/><path class="cls-2" d="M185.42,117.42h-5.11v14.81H176.1V117.42H171v-3.33h14.42Z"/><path class="cls-2" d="M203.39,114.09v18.14h-4.23v-7.67h-7.38v7.67h-4.23V114.09h4.23v7.58h7.38v-7.58Z"/><path class="cls-2" d="M224.71,123.15a9.61,9.61,0,0,1-.68,3.66,8.63,8.63,0,0,1-4.88,4.91,10.15,10.15,0,0,1-3.85.71,10.26,10.26,0,0,1-3.87-.71,8.66,8.66,0,0,1-4.9-4.91,10.33,10.33,0,0,1,0-7.32,8.63,8.63,0,0,1,4.9-4.89,10.85,10.85,0,0,1,7.72,0,8.89,8.89,0,0,1,3,2A8.74,8.74,0,0,1,224,119.5,9.59,9.59,0,0,1,224.71,123.15Zm-4.31,0a7.65,7.65,0,0,0-.35-2.42,4.93,4.93,0,0,0-1-1.82,4.4,4.4,0,0,0-1.6-1.15,5.42,5.42,0,0,0-2.15-.4,5.54,5.54,0,0,0-2.18.4,4.32,4.32,0,0,0-1.6,1.15,5.09,5.09,0,0,0-1,1.82,8.85,8.85,0,0,0,0,4.86,5.17,5.17,0,0,0,1,1.82,4.19,4.19,0,0,0,1.6,1.14,5.73,5.73,0,0,0,2.18.39,5.61,5.61,0,0,0,2.15-.39,4.27,4.27,0,0,0,1.6-1.14,5,5,0,0,0,1-1.82A7.69,7.69,0,0,0,220.4,123.15Z"/><path class="cls-2" d="M243,114.09v18.14h-2.19a2,2,0,0,1-.82-.15,2.12,2.12,0,0,1-.65-.55l-8.56-10.82c0,.33.06.64.07.94s0,.59,0,.86v9.72h-3.71V114.09h2.22a3.17,3.17,0,0,1,.46,0,1.59,1.59,0,0,1,.33.09,1.08,1.08,0,0,1,.29.2,3.52,3.52,0,0,1,.31.33l8.63,10.9c0-.35-.07-.69-.09-1s0-.64,0-.93v-9.6Z"/><path class="cls-2" d="M146.8,146.1a10.57,10.57,0,0,1,3.29.46,6.26,6.26,0,0,1,2.27,1.25,4.89,4.89,0,0,1,1.31,1.88,6.2,6.2,0,0,1,.43,2.34,6.85,6.85,0,0,1-.44,2.49,4.85,4.85,0,0,1-1.33,1.94,6.31,6.31,0,0,1-2.27,1.27,10.57,10.57,0,0,1-3.26.45h-2.19v6.07H140.4V146.1Zm0,8.91a2.67,2.67,0,0,0,3.09-3,3.15,3.15,0,0,0-.19-1.13,2.16,2.16,0,0,0-.57-.88,2.53,2.53,0,0,0-1-.57,4.26,4.26,0,0,0-1.37-.2h-2.19V155Z"/><path class="cls-2" d="M171.09,164.25h-3.82a1.63,1.63,0,0,1-1.52-.8l-3-5.27a1.58,1.58,0,0,0-.47-.49,1.56,1.56,0,0,0-.75-.15h-1.07v6.71h-4.21V146.1h5.9a12.15,12.15,0,0,1,3.36.41,6.14,6.14,0,0,1,2.26,1.13,4.19,4.19,0,0,1,1.28,1.7,5.58,5.58,0,0,1,.4,2.14,5.67,5.67,0,0,1-.24,1.67,5,5,0,0,1-.69,1.45,5.35,5.35,0,0,1-1.14,1.19,6.08,6.08,0,0,1-1.57.86,3.7,3.7,0,0,1,.78.53,3.62,3.62,0,0,1,.64.75Zm-9-9.62a4.42,4.42,0,0,0,1.46-.21,2.57,2.57,0,0,0,1-.61,2.3,2.3,0,0,0,.57-.9,3.7,3.7,0,0,0,.17-1.12,2.33,2.33,0,0,0-.78-1.86,3.61,3.61,0,0,0-2.41-.68h-1.69v5.38Z"/><path class="cls-2" d="M190.1,155.17a9.61,9.61,0,0,1-.68,3.66,8.63,8.63,0,0,1-4.88,4.91,10.82,10.82,0,0,1-7.71,0,8.64,8.64,0,0,1-4.91-4.91,10.33,10.33,0,0,1,0-7.32,8.66,8.66,0,0,1,4.91-4.9,10.17,10.17,0,0,1,3.86-.71,10,10,0,0,1,3.85.72,8.89,8.89,0,0,1,3,2,8.74,8.74,0,0,1,1.91,2.94A9.59,9.59,0,0,1,190.1,155.17Zm-4.31,0a7.6,7.6,0,0,0-.35-2.42,5.05,5.05,0,0,0-1-1.83,4.3,4.3,0,0,0-1.6-1.14,5.42,5.42,0,0,0-2.15-.4,5.54,5.54,0,0,0-2.18.4,4.3,4.3,0,0,0-1.6,1.14,5.22,5.22,0,0,0-1,1.83,8.82,8.82,0,0,0,0,4.85,5.22,5.22,0,0,0,1,1.83,4.19,4.19,0,0,0,1.6,1.14,5.73,5.73,0,0,0,2.18.39,5.61,5.61,0,0,0,2.15-.39,4.19,4.19,0,0,0,1.6-1.14,5.05,5.05,0,0,0,1-1.83A7.63,7.63,0,0,0,185.79,155.17Z"/><path class="cls-2" d="M201.3,154.85h6.45v7.66a9.61,9.61,0,0,1-3,1.48,12,12,0,0,1-3.3.46,11.25,11.25,0,0,1-4.07-.71,9.3,9.3,0,0,1-3.15-1.94,8.63,8.63,0,0,1-2-2.94,9.52,9.52,0,0,1-.71-3.69,10,10,0,0,1,.68-3.73,8.48,8.48,0,0,1,1.92-2.93,8.58,8.58,0,0,1,3-1.92,10.82,10.82,0,0,1,4-.69,11.88,11.88,0,0,1,2.13.19,11.42,11.42,0,0,1,1.84.51,8.86,8.86,0,0,1,1.54.77,8.24,8.24,0,0,1,1.24,1l-1.22,1.85a1.2,1.2,0,0,1-.74.54,1.33,1.33,0,0,1-1-.23A9.91,9.91,0,0,0,204,150a5,5,0,0,0-.9-.36,6,6,0,0,0-1-.2,9.88,9.88,0,0,0-1.15-.06,5.22,5.22,0,0,0-2.13.42,4.49,4.49,0,0,0-1.61,1.17,5.44,5.44,0,0,0-1,1.83,7.37,7.37,0,0,0-.36,2.37,7.73,7.73,0,0,0,.4,2.56,5.37,5.37,0,0,0,1.13,1.9,4.8,4.8,0,0,0,1.74,1.18,6.25,6.25,0,0,0,2.25.4,5.83,5.83,0,0,0,1.38-.15,7.35,7.35,0,0,0,1.2-.4v-2.75h-1.8a.88.88,0,0,1-.62-.21.7.7,0,0,1-.22-.54Z"/><path class="cls-2" d="M225.42,164.25h-3.81a1.62,1.62,0,0,1-1.52-.8l-3-5.27a1.61,1.61,0,0,0-.48-.49,1.49,1.49,0,0,0-.74-.15h-1.07v6.71h-4.21V146.1h5.9a12.15,12.15,0,0,1,3.36.41,6.14,6.14,0,0,1,2.26,1.13,4.28,4.28,0,0,1,1.28,1.7,5.78,5.78,0,0,1,.4,2.14,5.67,5.67,0,0,1-.24,1.67,5,5,0,0,1-.7,1.45,4.93,4.93,0,0,1-1.14,1.19,5.86,5.86,0,0,1-1.56.86,3.81,3.81,0,0,1,1.42,1.28Zm-8.94-9.62a4.46,4.46,0,0,0,1.46-.21,2.72,2.72,0,0,0,1-.61,2.17,2.17,0,0,0,.56-.9,3.42,3.42,0,0,0,.18-1.12,2.33,2.33,0,0,0-.78-1.86,3.61,3.61,0,0,0-2.41-.68h-1.69v5.38Z"/><path class="cls-2" d="M243.23,164.25H240a1.45,1.45,0,0,1-.89-.26,1.72,1.72,0,0,1-.51-.65l-1.07-3.16h-6.9l-1.07,3.16a1.59,1.59,0,0,1-.49.63,1.42,1.42,0,0,1-.88.28h-3.29l7-18.15h4.31Zm-6.69-6.94-1.68-5c-.12-.31-.26-.68-.4-1.11s-.28-.89-.42-1.39c-.13.51-.26,1-.4,1.41s-.27.8-.4,1.12l-1.67,4.94Z"/><path class="cls-2" d="M265.06,146.1v18.15h-3.71V153.81c0-.24,0-.5,0-.78a8.54,8.54,0,0,1,.07-.86l-4.82,9.33a1.56,1.56,0,0,1-.61.66,1.64,1.64,0,0,1-.86.22h-.57a1.66,1.66,0,0,1-.87-.22,1.61,1.61,0,0,1-.6-.66l-4.82-9.36.06.88c0,.29,0,.55,0,.79v10.44h-3.71V146.1h3.21l.48,0a1.06,1.06,0,0,1,.37.07.81.81,0,0,1,.29.19,1.41,1.41,0,0,1,.26.37l4.67,9.2q.26.48.48,1c.15.34.3.69.44,1,.14-.36.29-.72.44-1.07s.32-.68.5-1l4.65-9.17a1.69,1.69,0,0,1,.26-.37.91.91,0,0,1,.29-.19,1.06,1.06,0,0,1,.37-.07l.48,0Z"/><path class="cls-2" d="M289,146.1v18.15h-3.71V153.81c0-.24,0-.5,0-.78s0-.57.07-.86l-4.82,9.33a1.56,1.56,0,0,1-.61.66,1.64,1.64,0,0,1-.86.22h-.57a1.66,1.66,0,0,1-.87-.22,1.61,1.61,0,0,1-.6-.66l-4.82-9.36.06.88c0,.29,0,.55,0,.79v10.44h-3.71V146.1h3.22l.47,0a1.06,1.06,0,0,1,.37.07.81.81,0,0,1,.29.19,1.41,1.41,0,0,1,.26.37l4.67,9.2q.25.48.48,1c.15.34.3.69.44,1,.14-.36.29-.72.44-1.07s.32-.68.5-1l4.65-9.17a1.69,1.69,0,0,1,.26-.37.91.91,0,0,1,.29-.19,1.06,1.06,0,0,1,.37-.07l.48,0Z"/><path class="cls-2" d="M296.72,164.25h-4.23V146.1h4.23Z"/><path class="cls-2" d="M316.07,146.1v18.15h-2.19a1.77,1.77,0,0,1-.81-.16,1.87,1.87,0,0,1-.66-.54l-8.56-10.82c0,.32.06.64.07.94s0,.59,0,.85v9.73h-3.71V146.1h2.22a3,3,0,0,1,.46,0,1.21,1.21,0,0,1,.34.09,1.54,1.54,0,0,1,.28.19,3.71,3.71,0,0,1,.31.34l8.63,10.9c0-.35-.07-.69-.08-1s0-.63,0-.92V146.1Z"/><path class="cls-2" d="M328.3,154.85h6.45v7.66a9.61,9.61,0,0,1-3,1.48,11.94,11.94,0,0,1-3.29.46,11.27,11.27,0,0,1-4.08-.71,9.4,9.4,0,0,1-3.15-1.94,8.46,8.46,0,0,1-2-2.94,9.34,9.34,0,0,1-.71-3.69,10,10,0,0,1,.67-3.73,8.48,8.48,0,0,1,1.92-2.93,8.76,8.76,0,0,1,3-1.92,10.88,10.88,0,0,1,4-.69,12.05,12.05,0,0,1,2.13.19,11.59,11.59,0,0,1,1.83.51,8.52,8.52,0,0,1,1.54.77,8.34,8.34,0,0,1,1.25,1l-1.22,1.85a1.2,1.2,0,0,1-.74.54,1.32,1.32,0,0,1-1-.23c-.33-.2-.65-.37-.94-.51a5.38,5.38,0,0,0-.91-.36,5.74,5.74,0,0,0-1-.2,9.82,9.82,0,0,0-1.14-.06,5.19,5.19,0,0,0-2.13.42,4.49,4.49,0,0,0-1.61,1.17,5.28,5.28,0,0,0-1,1.83,7.37,7.37,0,0,0-.36,2.37,7.48,7.48,0,0,0,.4,2.56,5.35,5.35,0,0,0,1.12,1.9,4.92,4.92,0,0,0,1.75,1.18,6.16,6.16,0,0,0,2.24.4,5.83,5.83,0,0,0,1.38-.15,7.35,7.35,0,0,0,1.2-.4v-2.75h-1.79a.85.85,0,0,1-.62-.21.71.71,0,0,1-.23-.54Z"/></g></g></svg>